A Football Life - Barry Sanders x264 [Manson316]


General
Format                           : MPEG-4
Codec ID                         : mp42
File size                        : 499 MiB
Duration                         : 44mn 34s

Video
Bit rate mode                    : Variable
Bit rate                         : 1 342 Kbps
Width                            : 720 pixels
Height                           : 432 pixels
Display aspect ratio             : 1.977
Frame rate mode                  : Variable
Frame rate                       : 26.183 fps
Minimum frame rate               : 17.123 fps
Maximum frame rate               : 60.000 fps
Stream size                      : 427 MiB (85%)

Audio
Codec ID                         : ac-3
Duration                         : 44mn 34s
Bit rate mode                    : Constant
Bit rate                         : 224 Kbps
Channel(s)                       : 2 channels
Channel positions                : Front: L R
Sampling rate                    : 48.0 KHz
Bit depth                        : 16 bits
Compression mode                 : Lossy
Stream size                      : 71.4 MiB (14%)
Language                         : English



Here's the Barry Sanders Episode...
Enjoy and Seed